<svg height="457pt" viewBox="0 0 457.17857 457" width="457pt" xmlns="http://www.w3.org/2000/svg"><path d="m457.09375 112.089844c-.003906-2.375-.847656-4.71875-2.59375-6.464844l-102.855469-102.855469c-1.75-1.753906-4.089843-2.605469-6.464843-2.605469l-224.03125-.0742182c-5.050782 0-9.144532 4.0898442-9.144532 9.1406252v90.894531h-102.859375c-5.050781 0-9.144531 4.089844-9.144531 9.144531v114.625c0 5.050781 4.09375 9.140625 9.144531 9.140625h102.859375v215.054688c0 5.054687 4.09375 9.140625 9.144532 9.140625h326.886718c5.050782 0 9.144532-4.085938 9.144532-9.140625zm-102.773438-80.785156 71.644532 71.640624h-71.644532zm-336.035156 87.105468h193.445313v96.339844h-193.445313zm112.003906 320.535156v-205.910156h90.585938c5.050781 0 9.144531-4.089844 9.144531-9.140625v-114.625c0-5.054687-4.09375-9.144531-9.144531-9.144531h-90.585938v-81.75h205.746094v93.714844c0 5.054687 4.09375 9.140625 9.144532 9.140625h93.714843v317.714843zm0 0"/><path d="m205.734375 285.308594c0 4.402344.632813 8.648437 1.261719 13.054687.625 4.386719 1.253906 8.789063 1.253906 13.191407 0 5.503906-1.570312 11.632812-12.730469 11.632812v8.011719c11.160157 0 12.730469 6.757812 12.730469 11.632812 0 4.25-.628906 8.484375-1.253906 12.734375-.628906 4.25-1.261719 8.640625-1.261719 12.886719 0 15.871094 9.746094 21.539063 22.792969 21.539063h3.300781v-8.652344h-2.828125c-8.804688 0-12.421875-4.875-12.421875-13.667969 0-3.773437.476563-7.394531 1.101563-11.324219.628906-3.761718 1.101562-7.691406 1.101562-11.941406.160156-10.058594-4.242188-15.410156-11.320312-17.136719v-.304687c7.078124-1.894532 11.480468-6.925782 11.320312-16.984375 0-4.234375-.472656-8.011719-1.101562-11.9375-.625-3.777344-1.101563-7.550781-1.101563-11.160157 0-8.484374 3.144531-13.515624 12.421875-13.515624h2.828125v-8.652344h-3.300781c-13.363282 0-22.792969 6.132812-22.792969 20.59375zm0 0"/><path d="m253.386719 354.3125c-5.503907 0-9.433594 4.082031-9.433594 9.894531 0 5.667969 3.777344 9.902344 9.273437 9.902344 5.816407 0 9.429688-4.234375 9.429688-9.902344 0-5.8125-3.765625-9.894531-9.269531-9.894531zm0 0"/><path d="m285.929688 354.3125c-5.503907 0-9.429688 4.082031-9.429688 9.894531 0 5.667969 3.773438 9.902344 9.269531 9.902344 5.816407 0 9.433594-4.234375 9.433594-9.902344 0-5.8125-3.769531-9.894531-9.273437-9.894531zm0 0"/><path d="m318.480469 354.3125c-5.503907 0-9.429688 4.082031-9.429688 9.894531 0 5.667969 3.773438 9.902344 9.269531 9.902344 5.816407 0 9.433594-4.234375 9.433594-9.902344 0-5.8125-3.769531-9.894531-9.273437-9.894531zm0 0"/><path d="m360.929688 311.554688c0-4.402344.632812-8.804688 1.261718-13.191407.625-4.40625 1.253906-8.652343 1.253906-13.054687 0-14.460938-9.585937-20.59375-22.945312-20.59375h-3.144531v8.652344h2.832031c9.117188.152343 12.417969 5.03125 12.417969 13.515624 0 3.609376-.632813 7.382813-1.101563 11.160157-.632812 3.925781-1.257812 7.703125-1.257812 11.9375 0 10.058593 4.402344 15.089843 11.316406 16.984375v.304687c-6.914062 1.726563-11.316406 7.078125-11.316406 17.136719 0 4.25.625 8.179688 1.257812 11.941406.46875 3.929688 1.101563 7.550782 1.101563 11.324219 0 8.792969-3.773438 13.515625-12.574219 13.667969h-2.675781v8.652344h3.304687c12.886719 0 22.785156-5.667969 22.785156-21.539063 0-4.246094-.628906-8.636719-1.253906-12.886719-.628906-4.25-1.261718-8.484375-1.261718-12.734375 0-4.875 1.574218-11.632812 12.734374-11.632812v-8.011719c-11.160156 0-12.734374-6.128906-12.734374-11.632812zm0 0"/><path d="m77.195312 139.882812c5.445313 0 10.019532 1.167969 13.226563 2.726563l2.042969-6.90625c-2.238282-1.171875-7.390625-2.921875-15.5625-2.921875-20.324219 0-34.234375 13.914062-34.234375 34.433594 0 21.492187 13.910156 33.164062 32.390625 33.164062 7.972656 0 14.199218-1.558594 17.3125-3.109375l-1.75-6.71875c-3.40625 1.65625-8.65625 2.726563-13.8125 2.726563-15.953125 0-25.191406-10.3125-25.191406-26.355469 0-17.21875 10.210937-27.039063 25.578124-27.039063zm0 0"/><path d="m122.644531 162.257812c-9.042969-3.511718-13.03125-6.519531-13.03125-12.648437 0-4.476563 3.40625-9.820313 12.351563-9.820313 5.933594 0 10.308594 1.941407 12.449218 3.113282l2.335938-6.90625c-2.917969-1.65625-7.78125-3.214844-14.492188-3.214844-12.742187 0-21.199218 7.585938-21.199218 17.800781 0 9.242188 6.609375 14.785157 17.308594 18.578125 8.851562 3.398438 12.351562 6.898438 12.351562 13.03125 0 6.609375-5.054688 11.1875-13.710938 11.1875-5.839843 0-11.382812-1.949218-15.175781-4.285156l-2.136719 7.105469c3.5 2.328125 10.40625 4.179687 16.726563 4.179687 15.464844 0 22.953125-8.75 22.953125-18.871094 0-9.628906-5.644531-14.972656-16.730469-19.25zm0 0"/><path d="m170.621094 162.257812c-9.042969-3.511718-13.03125-6.519531-13.03125-12.648437 0-4.476563 3.40625-9.820313 12.347656-9.820313 5.9375 0 10.3125 1.941407 12.449219 3.113282l2.335937-6.90625c-2.917968-1.65625-7.777344-3.214844-14.492187-3.214844-12.742188 0-21.199219 7.585938-21.199219 17.800781 0 9.242188 6.613281 14.785157 17.3125 18.578125 8.851562 3.398438 12.351562 6.898438 12.351562 13.03125 0 6.609375-5.058593 11.1875-13.714843 11.1875-5.835938 0-11.378907-1.949218-15.171875-4.285156l-2.136719 7.105469c3.5 2.328125 10.402344 4.179687 16.722656 4.179687 15.46875 0 22.957031-8.75 22.957031-18.871094 0-9.628906-5.644531-14.972656-16.730468-19.25zm0 0"/></svg>